HIERARCHY
ROOT Hips
{
    OFFSET   0.000000   0.000000   0.000000
    CHANNELS 6 Xposition Yposition Zposition Zrotation Xrotation Yrotation
    JOINT Chest
    {
        OFFSET   0.000000   8.007230   0.000000
        CHANNELS 3 Zrotation Xrotation Yrotation
        JOINT Chest2
        {
            OFFSET   0.000000  22.077100   0.000000
            CHANNELS 3 Zrotation Xrotation Yrotation
            JOINT Neck
            {
                OFFSET   0.000000  23.254800   0.000000
                CHANNELS 3 Zrotation Xrotation Yrotation
                JOINT Head
                {
                    OFFSET   0.000010  14.370000   1.956600
                    CHANNELS 3 Zrotation Xrotation Yrotation
                    End Site
                    {
                        OFFSET   0.000000  19.566000   0.000000
                    }
                }
            }
            JOINT LeftCollar
            {
                OFFSET   3.911900  19.017000  -0.467062
                CHANNELS 3 Zrotation Xrotation Yrotation
                JOINT LeftShoulder
                {
                    OFFSET  10.383700   0.000000   0.000000
                    CHANNELS 3 Zrotation Xrotation Yrotation
                    JOINT LeftElbow
                    {
                        OFFSET  26.662100   0.001193   0.000835
                        CHANNELS 3 Zrotation Xrotation Yrotation
                        JOINT LeftWrist
                        {
                            OFFSET  28.869000  -0.000058  -0.000075
                            CHANNELS 3 Zrotation Xrotation Yrotation
                            JOINT LeftFinger0
                            {
                                OFFSET   2.044660  -2.323460   3.252850
                                CHANNELS 3 Zrotation Xrotation Yrotation
                                JOINT LeftFinger01
                                {
                                    OFFSET   3.088130   0.000000   0.000000
                                    CHANNELS 3 Zrotation Xrotation Yrotation
                                    JOINT LeftFinger02
                                    {
                                        OFFSET   2.639450   0.000000   0.000000
                                        CHANNELS 3 Zrotation Xrotation Yrotation
                                        End Site
                                        {
                                            OFFSET   2.582190   0.000000   0.000000
                                        }
                                    }
                                }
                            }
                            JOINT LeftFinger1
                            {
                                OFFSET   8.364480   0.000000   3.252850
                                CHANNELS 3 Zrotation Xrotation Yrotation
                                JOINT LeftFinger11
                                {
                                    OFFSET   4.646920   0.000000   0.000000
                                    CHANNELS 3 Zrotation Xrotation Yrotation
                                    JOINT LeftFinger12
                                    {
                                        OFFSET   2.323460   0.000000   0.000000
                                        CHANNELS 3 Zrotation Xrotation Yrotation
                                        End Site
                                        {
                                            OFFSET   2.273050   0.000000   0.000000
                                        }
                                    }
                                }
                            }
                            JOINT LeftFinger2
                            {
                                OFFSET   8.364490   0.000016   1.078090
                                CHANNELS 3 Zrotation Xrotation Yrotation
                                JOINT LeftFinger21
                                {
                                    OFFSET   5.111620   0.000000   0.000000
                                    CHANNELS 3 Zrotation Xrotation Yrotation
                                    JOINT LeftFinger22
                                    {
                                        OFFSET   2.788150   0.000012   0.000000
                                        CHANNELS 3 Zrotation Xrotation Yrotation
                                        End Site
                                        {
                                            OFFSET   2.727660   0.000000   0.000000
                                        }
                                    }
                                }
                            }
                            JOINT LeftFinger3
                            {
                                OFFSET   7.899780   0.000014  -1.078090
                                CHANNELS 3 Zrotation Xrotation Yrotation
                                JOINT LeftFinger31
                                {
                                    OFFSET   4.646930   0.000000   0.000000
                                    CHANNELS 3 Zrotation Xrotation Yrotation
                                    JOINT LeftFinger32
                                    {
                                        OFFSET   2.323470   0.000000   0.000000
                                        CHANNELS 3 Zrotation Xrotation Yrotation
                                        End Site
                                        {
                                            OFFSET   2.273050   0.000000   0.000000
                                        }
                                    }
                                }
                            }
                            JOINT LeftFinger4
                            {
                                OFFSET   7.435090   0.000000  -3.252850
                                CHANNELS 3 Zrotation Xrotation Yrotation
                                JOINT LeftFinger41
                                {
                                    OFFSET   3.717550   0.000000   0.000000
                                    CHANNELS 3 Zrotation Xrotation Yrotation
                                    JOINT LeftFinger42
                                    {
                                        OFFSET   1.858770   0.000000   0.000000
                                        CHANNELS 3 Zrotation Xrotation Yrotation
                                        End Site
                                        {
                                            OFFSET   1.818440   0.000000   0.000000
                                        }
                                    }
                                }
                            }
                        }
                    }
                }
            }
            JOINT RightCollar
            {
                OFFSET  -3.911900  19.017000  -0.467063
                CHANNELS 3 Zrotation Xrotation Yrotation
                JOINT RightShoulder
                {
                    OFFSET -10.383700   0.000023   0.000000
                    CHANNELS 3 Zrotation Xrotation Yrotation
                    JOINT RightElbow
                    {
                        OFFSET -26.662100   0.001246   0.001011
                        CHANNELS 3 Zrotation Xrotation Yrotation
                        JOINT RightWrist
                        {
                            OFFSET -28.869000  -0.000026  -0.000078
                            CHANNELS 3 Zrotation Xrotation Yrotation
                            JOINT RightFinger0
                            {
                                OFFSET  -2.044660  -2.323490   3.252850
                                CHANNELS 3 Zrotation Xrotation Yrotation
                                JOINT RightFinger01
                                {
                                    OFFSET  -3.088130   0.000000   0.000000
                                    CHANNELS 3 Zrotation Xrotation Yrotation
                                    JOINT RightFinger02
                                    {
                                        OFFSET  -2.639460   0.000000   0.000000
                                        CHANNELS 3 Zrotation Xrotation Yrotation
                                        End Site
                                        {
                                            OFFSET  -2.582190   0.000000   0.000000
                                        }
                                    }
                                }
                            }
                            JOINT RightFinger1
                            {
                                OFFSET  -8.364480   0.000000   3.252850
                                CHANNELS 3 Zrotation Xrotation Yrotation
                                JOINT RightFinger11
                                {
                                    OFFSET  -4.646920   0.000000   0.000000
                                    CHANNELS 3 Zrotation Xrotation Yrotation
                                    JOINT RightFinger12
                                    {
                                        OFFSET  -2.323470   0.000000   0.000000
                                        CHANNELS 3 Zrotation Xrotation Yrotation
                                        End Site
                                        {
                                            OFFSET  -2.273050   0.000000   0.000000
                                        }
                                    }
                                }
                            }
                            JOINT RightFinger2
                            {
                                OFFSET  -8.364480   0.000000   1.078090
                                CHANNELS 3 Zrotation Xrotation Yrotation
                                JOINT RightFinger21
                                {
                                    OFFSET  -5.111620   0.000000   0.000000
                                    CHANNELS 3 Zrotation Xrotation Yrotation
                                    JOINT RightFinger22
                                    {
                                        OFFSET  -2.788160   0.000000   0.000000
                                        CHANNELS 3 Zrotation Xrotation Yrotation
                                        End Site
                                        {
                                            OFFSET  -2.727660   0.000000   0.000000
                                        }
                                    }
                                }
                            }
                            JOINT RightFinger3
                            {
                                OFFSET  -7.899780   0.000000  -1.078090
                                CHANNELS 3 Zrotation Xrotation Yrotation
                                JOINT RightFinger31
                                {
                                    OFFSET  -4.646930   0.000000   0.000000
                                    CHANNELS 3 Zrotation Xrotation Yrotation
                                    JOINT RightFinger32
                                    {
                                        OFFSET  -2.323470   0.000000   0.000000
                                        CHANNELS 3 Zrotation Xrotation Yrotation
                                        End Site
                                        {
                                            OFFSET  -2.273050   0.000000   0.000000
                                        }
                                    }
                                }
                            }
                            JOINT RightFinger4
                            {
                                OFFSET  -7.435090   0.000000  -3.252850
                                CHANNELS 3 Zrotation Xrotation Yrotation
                                JOINT RightFinger41
                                {
                                    OFFSET  -3.717550   0.000000   0.000000
                                    CHANNELS 3 Zrotation Xrotation Yrotation
                                    JOINT RightFinger42
                                    {
                                        OFFSET  -1.858760   0.000000   0.000000
                                        CHANNELS 3 Zrotation Xrotation Yrotation
                                        End Site
                                        {
                                            OFFSET  -1.818440   0.000000   0.000000
                                        }
                                    }
                                }
                            }
                        }
                    }
                }
            }
        }
    }
    JOINT LeftHip
    {
        OFFSET   9.783010   0.000000   0.000000
        CHANNELS 3 Zrotation Xrotation Yrotation
        JOINT LeftKnee
        {
            OFFSET   0.000073 -41.789100   0.001749
            CHANNELS 3 Zrotation Xrotation Yrotation
            JOINT LeftAnkle
            {
                OFFSET   0.000111 -41.133200  -0.000179
                CHANNELS 3 Zrotation Xrotation Yrotation
                JOINT LeftToe
                {
                    OFFSET   0.000000  -6.358960  14.674500
                    CHANNELS 3 Zrotation Xrotation Yrotation
                    End Site
                    {
                        OFFSET   0.000000   0.000000   3.913200
                    }
                }
            }
        }
    }
    JOINT RightHip
    {
        OFFSET  -9.783010   0.000000   0.000000
        CHANNELS 3 Zrotation Xrotation Yrotation
        JOINT RightKnee
        {
            OFFSET   0.000424 -41.789200   0.005205
            CHANNELS 3 Zrotation Xrotation Yrotation
            JOINT RightAnkle
            {
                OFFSET   0.000000 -41.133200  -0.000155
                CHANNELS 3 Zrotation Xrotation Yrotation
                JOINT RightToe
                {
                    OFFSET   0.000000  -6.358960  14.674500
                    CHANNELS 3 Zrotation Xrotation Yrotation
                    End Site
                    {
                        OFFSET   0.000000   0.000000   3.913200
                    }
                }
            }
        }
    }
}
MOTION
Frames: 4
Frame Time:   0.016667
 -0.406804  89.461800  -0.803823  -0.690692  -0.601834   3.512460   0.800743   1.866420  -1.440720   1.649510   3.711920  -2.909710  -1.837930   1.691030   0.059281  -3.026960   3.418590   3.945900  -4.755530   1.123570  12.529100 -78.995700   4.722170   1.444480   0.406490   6.052380 -13.567200   8.954000  -1.013950  -3.872110  42.008800  36.515500 -59.382300 -32.090900   0.000964   0.000676 -11.045500   0.004495  -0.001041 -31.225700  -0.736837   1.219970 -25.554700  -0.004709  -0.000406 -17.888300   0.002011  -0.001931 -28.564300  -3.777620   6.907890 -42.489600  -0.002961  -0.003789 -28.298100   0.001732  -0.003871 -27.641800  -3.670290   6.968180 -31.163600   0.002930   0.005235 -20.755000  -0.001154   0.003947 -33.282900  -5.891500   8.886990 -50.611700  -0.002286  -0.004533 -33.707400  -0.002991  -0.003462   6.409280   4.484900   5.607490  73.586700  -4.971330  -1.750800   4.159360  -6.547190  12.013000 -18.096400  -2.334500   0.625225 -40.591400  34.642700  76.641400  21.648000  -0.000577   0.000330   5.823990  -0.000219   0.000472  28.451500   2.673780   4.921020  23.372900  -0.001376   0.002508  16.361000  -0.000410   0.010582  28.499300  -1.407240  -2.589440  36.522100   0.004003   0.004664  24.323700   0.008599   0.000969  28.161400  -1.391870  -2.597750  33.360500   0.002353   0.008564  22.218100   0.001893   0.009197  34.633300  -1.675600  -2.424670  52.004200   0.002049   0.003388  34.634800   0.006233  -0.004112   1.792440   2.979390  -0.811025   0.261396   0.119115  15.040600  -2.440520  -2.738740  -0.241892  -0.000000   0.000000  -0.000000  -1.175310   4.263530  -5.010760   1.855550   0.347870 -16.120500   0.165739  -3.484080  -3.993660  -0.000000   0.000000  -0.000000
 -0.423376  89.461600  -0.810436  -0.680871  -0.638012   3.512480   0.800705   1.879570  -1.433340   1.649620   3.738330  -2.895140  -1.853080   1.731090   0.059294  -3.052150   3.499510   3.920090  -4.760590   1.133110  12.524400 -79.004900   4.767760   1.433870   0.401883   6.031890 -13.573900   8.969400  -1.031010  -3.858410  42.043100  36.557300 -59.396000 -32.090900   0.000972   0.000667 -11.045500   0.004486  -0.001049 -31.234700  -0.736839   1.218480 -25.562100  -0.004707  -0.000405 -17.893500   0.002011  -0.001931 -28.564500  -3.777570   6.903970 -42.533400  -0.002960  -0.003788 -28.327300   0.001731  -0.003871 -27.646800  -3.670310   6.963960 -31.193300   0.002931   0.005236 -20.774800  -0.001155   0.003948 -33.296800  -5.897130   8.890720 -50.633500  -0.002288  -0.004532 -33.721900  -0.002994  -0.003462   6.408120   4.429920   5.560540  73.625500  -4.858520  -1.749110   4.151900  -6.568630  12.038100 -18.148100  -2.359310   0.592613 -40.370900  34.422300  76.461800  21.794900  -0.000591   0.000337   5.897430  -0.000225   0.000493  28.469300   2.629190   4.832720  23.385400  -0.001377   0.002483  16.369800  -0.000412   0.010579  28.501000  -1.497290  -2.754600  36.565200   0.004000   0.004636  24.352300   0.008599   0.000965  28.167000  -1.481150  -2.763430  33.427500   0.002350   0.008579  22.262700   0.001871   0.009193  34.706000  -1.786560  -2.576830  52.119500   0.002029   0.003359  34.711600   0.006226  -0.004115   1.792960   3.018190  -0.823749   0.266897   0.095570  15.066800  -2.445790  -2.713000  -0.258618  -0.000000   0.000000   0.000000  -1.172170   4.302200  -5.007570   1.860810   0.331827 -16.139400   0.154292  -3.477600  -3.975690  -0.000000   0.000000  -0.000000
 -0.451178  89.461400  -0.821820  -0.665285  -0.702024   3.512530   0.800502   1.902070  -1.414090   1.649110   3.783610  -2.856980  -1.883740   1.801140   0.059372  -3.103190   3.640930   3.864890  -4.767980   1.142750  12.498900 -79.019400   4.857970   1.423360   0.393925   6.006790 -13.584000   8.990760  -1.056100  -3.844730  42.078600  36.610600 -59.424200 -32.090900   0.000981   0.000654 -11.045500   0.004471  -0.001063 -31.251900  -0.736842   1.213980 -25.576100  -0.004706  -0.000404 -17.903300   0.002013  -0.001931 -28.564900  -3.777490   6.897800 -42.603300  -0.002959  -0.003784 -28.373800   0.001727  -0.003871 -27.655300  -3.670330   6.957190 -31.243800   0.002933   0.005239 -20.808300  -0.001158   0.003950 -33.321200  -5.906990   8.897180 -50.671700  -0.002292  -0.004528 -33.747300  -0.003004  -0.003461   6.402850   4.312630   5.459490  73.699000  -4.616060  -1.738730   4.132100  -6.679460  12.065400 -18.202200  -2.480120   0.482581 -40.061300  34.080300  76.174400  22.005600  -0.000621   0.000346   6.002800  -0.000239   0.000530  28.493200   2.544990   4.676720  23.398000  -0.001380   0.002434  16.378600  -0.000417   0.010574  28.496100  -1.645930  -3.028410  36.608200   0.003995   0.004580  24.381000   0.008601   0.000951  28.176400  -1.629070  -3.037760  33.549700   0.002344   0.008609  22.344100   0.001824   0.009185  34.818800  -1.970110  -2.828900  52.300700   0.001989   0.003301  34.832200   0.006211  -0.004120   1.794010   3.087590  -0.837636   0.275539   0.056688  15.108700  -2.454490  -2.672220  -0.284483   0.000000   0.000000   0.000000  -1.167520   4.364110  -4.997630   1.866100   0.315773 -16.166800   0.137273  -3.471150  -3.951030  -0.000000   0.000000   0.000000
 -0.473883  89.461300  -0.831087  -0.654708  -0.760187   3.505950   0.802365   1.920130  -1.382830   1.652190   3.820120  -2.794790  -1.918710   1.864320   0.061922  -3.161420   3.768270   3.790850  -4.773320   1.142320  12.439200 -79.030200   4.959030   1.440720   0.382285   6.002300 -13.590900   8.999450  -1.071160  -3.844850  42.069600  36.602900 -59.482500 -32.082000   0.000973   0.000648 -11.041000   0.004460  -0.001072 -31.272900  -0.736519   1.203400 -25.593300  -0.004707  -0.000403 -17.915300   0.002018  -0.001930 -28.565200  -3.777340   6.892740 -42.663700  -0.002957  -0.003777 -28.414000   0.001720  -0.003870 -27.664100  -3.670340   6.951250 -31.295900   0.002935   0.005244 -20.843100  -0.001162   0.003954 -33.347000  -5.915870   8.901860 -50.713000  -0.002299  -0.004522 -33.774900  -0.003019  -0.003460   6.388990   4.160700   5.321850  73.785300  -4.312040  -1.701310   4.109740  -6.930270  12.064600 -18.135200  -2.745030   0.266249 -39.916900  33.817100  75.908100  22.114000  -0.000662   0.000347   6.057010  -0.000258   0.000560  28.391700   2.431180   4.494180  23.306200  -0.001388   0.002369  16.314300  -0.000422   0.010568  28.469800  -1.790420  -3.297740  36.409000   0.003989   0.004508  24.248300   0.008603   0.000928  28.181200  -1.774470  -3.306600  33.653000   0.002334   0.008648  22.412900   0.001762   0.009173  34.897900  -2.149620  -3.076240  52.431300   0.001935   0.003225  34.919200   0.006191  -0.004126   1.795960   3.154740  -0.838763   0.282518   0.018860  15.136900  -2.460660  -2.642880  -0.304319   0.000000   0.000000   0.000000  -1.161360   4.406430  -4.977990   1.868180   0.335898 -16.182000   0.128497  -3.487100  -3.943670  -0.000000   0.000000  -0.000000
